<?xml version="1.0" encoding="utf-8"?>
<svg viewBox="16.491 29.731 148.928 42.308" xmlns="http://www.w3.org/2000/svg">
  <path d="M 40.655 49.409 L 39.675 49.409 C 38.688 49.409 37.568 49.596 36.315 49.969 L 36.315 56.689 L 40.515 56.689 C 41.262 56.689 41.635 56.316 41.635 55.569 L 41.635 50.389 C 41.635 50.109 41.542 49.876 41.355 49.689 C 41.168 49.502 40.935 49.409 40.655 49.409 Z M 42.055 60.469 L 36.315 60.469 L 36.315 65.229 L 31.415 65.229 L 31.415 45.629 L 35.755 45.629 L 36.035 47.029 C 36.915 46.449 37.815 46.026 38.735 45.759 C 39.662 45.486 40.442 45.349 41.075 45.349 L 42.335 45.349 C 43.602 45.349 44.618 45.732 45.385 46.499 C 46.152 47.266 46.535 48.282 46.535 49.549 L 46.535 55.989 C 46.535 57.389 46.138 58.486 45.345 59.279 C 44.552 60.072 43.455 60.469 42.055 60.469 Z M 54.235 56.829 L 54.935 56.829 C 55.921 56.829 57.041 56.642 58.295 56.269 L 58.295 54.589 L 54.235 54.589 C 53.955 54.589 53.721 54.682 53.535 54.869 C 53.348 55.056 53.255 55.289 53.255 55.569 L 53.255 55.849 C 53.255 56.129 53.348 56.362 53.535 56.549 C 53.721 56.736 53.955 56.829 54.235 56.829 Z M 49.755 49.409 L 49.755 45.909 C 53.168 45.536 56.248 45.349 58.995 45.349 C 60.261 45.349 61.278 45.732 62.045 46.499 C 62.811 47.266 63.195 48.282 63.195 49.549 L 63.195 60.469 L 58.855 60.469 L 58.575 59.069 C 57.695 59.649 56.795 60.072 55.875 60.339 C 54.948 60.612 54.168 60.749 53.535 60.749 L 52.555 60.749 C 51.288 60.749 50.271 60.366 49.505 59.599 C 48.738 58.832 48.355 57.816 48.355 56.549 L 48.355 55.289 C 48.355 54.022 48.738 53.006 49.505 52.239 C 50.271 51.472 51.288 51.089 52.555 51.089 L 58.295 51.089 L 58.295 49.969 C 58.295 49.689 58.201 49.456 58.015 49.269 C 57.828 49.082 57.595 48.989 57.315 48.989 C 56.101 48.989 54.761 49.046 53.295 49.159 C 51.828 49.272 50.648 49.356 49.755 49.409 Z M 74.954 49.409 L 73.974 49.409 C 72.987 49.409 71.867 49.596 70.614 49.969 L 70.614 60.469 L 65.714 60.469 L 65.714 45.629 L 70.054 45.629 L 70.334 47.029 C 71.214 46.449 72.114 46.026 73.034 45.759 C 73.961 45.486 74.741 45.349 75.374 45.349 L 76.634 45.349 C 77.901 45.349 78.917 45.732 79.684 46.499 C 80.451 47.266 80.834 48.282 80.834 49.549 L 80.834 60.469 L 75.934 60.469 L 75.934 50.389 C 75.934 50.109 75.841 49.876 75.654 49.689 C 75.467 49.502 75.234 49.409 74.954 49.409 Z M 93.714 56.829 L 93.714 60.469 C 91.9 60.656 90.127 60.749 88.394 60.749 C 87.127 60.749 86.11 60.366 85.344 59.599 C 84.577 58.832 84.194 57.816 84.194 56.549 L 84.194 49.409 L 82.514 49.409 L 82.514 45.629 L 84.194 45.629 L 84.754 42.269 L 89.094 42.269 L 89.094 45.629 L 92.594 45.629 L 92.594 49.409 L 89.094 49.409 L 89.094 55.849 C 89.094 56.129 89.187 56.362 89.374 56.549 C 89.56 56.736 89.794 56.829 90.074 56.829 L 93.714 56.829 Z M 106.593 49.689 L 104.213 49.689 C 103.04 49.689 101.827 49.969 100.573 50.529 L 100.573 60.469 L 95.673 60.469 L 95.673 45.629 L 100.013 45.629 L 100.293 47.449 C 101.9 46.049 103.58 45.349 105.333 45.349 L 106.593 45.349 L 106.593 49.689 Z M 112.473 65.509 C 111.486 65.509 110.273 65.416 108.833 65.229 L 108.833 61.589 L 111.353 61.589 C 112.059 61.589 112.523 61.392 112.743 60.999 C 112.956 60.606 112.913 60.056 112.613 59.349 L 106.873 45.629 L 112.053 45.629 L 115.553 55.149 L 118.493 45.629 L 123.673 45.629 L 118.073 61.029 C 117.533 62.502 116.833 63.619 115.973 64.379 C 115.113 65.132 113.946 65.509 112.473 65.509 Z M 132.072 46.189 L 139.072 46.189 L 139.072 60.469 L 134.172 60.469 L 134.172 49.969 L 132.072 49.969 L 132.072 46.189 Z M 156.992 49.829 L 156.992 56.269 C 156.992 57.669 156.595 58.766 155.802 59.559 C 155.009 60.352 153.912 60.749 152.512 60.749 L 146.072 60.749 C 144.672 60.749 143.575 60.352 142.782 59.559 C 141.989 58.766 141.592 57.669 141.592 56.269 L 141.592 49.829 C 141.592 48.429 141.989 47.332 142.782 46.539 C 143.575 45.746 144.672 45.349 146.072 45.349 L 152.512 45.349 C 153.912 45.349 155.009 45.746 155.802 46.539 C 156.595 47.332 156.992 48.429 156.992 49.829 Z M 152.092 55.849 L 152.092 50.249 C 152.092 49.502 151.719 49.129 150.972 49.129 L 147.612 49.129 C 146.865 49.129 146.492 49.502 146.492 50.249 L 146.492 55.849 C 146.492 56.596 146.865 56.969 147.612 56.969 L 150.972 56.969 C 151.719 56.969 152.092 56.596 152.092 55.849 Z" transform="matrix(1, 0, 0, 1, 0, 0)" style="white-space: pre;"/>
  <path id="path36" style="fill-opacity: 1; fill-rule: nonzero; stroke: none; fill: rgb(134, 64, 244);" d="M 127.22 56.094 C 126.761 56.094 126.388 56.467 126.388 56.925 C 126.388 57.383 126.761 57.756 127.22 57.756 C 127.678 57.756 128.051 57.383 128.051 56.925 C 128.051 56.467 127.678 56.094 127.22 56.094"/>
  <path id="path38" style="fill-opacity: 1; fill-rule: nonzero; stroke: none; fill: rgb(134, 64, 244);" d="M 130.1 53.968 C 129.731 53.599 129.295 53.311 128.793 53.103 C 128.29 52.897 127.759 52.793 127.197 52.793 C 126.074 52.793 125.121 53.185 124.338 53.968 C 123.555 54.751 123.164 55.704 123.164 56.826 C 123.164 57.95 123.555 58.903 124.338 59.686 C 124.977 60.325 125.732 60.699 126.598 60.816 L 126.598 58.639 C 125.897 58.384 125.394 57.713 125.394 56.925 C 125.394 55.919 126.213 55.1 127.22 55.1 C 128.226 55.1 129.045 55.919 129.045 56.925 C 129.045 57.713 128.542 58.384 127.841 58.639 L 127.841 60.808 C 128.169 60.758 128.487 60.675 128.793 60.55 C 129.295 60.343 129.731 60.055 130.1 59.686 C 130.47 59.316 130.758 58.888 130.965 58.4 C 131.171 57.912 131.275 57.388 131.275 56.826 C 131.275 56.265 131.171 55.741 130.965 55.253 C 130.758 54.765 130.47 54.337 130.1 53.968"/>
  <path id="path32" style="fill: rgb(16, 15, 13); fill-opacity: 1; fill-rule: nonzero; stroke: none;" d="M 136.298 40.532 C 136.932 40.532 137.447 40.017 137.447 39.384 C 137.447 38.753 136.932 38.236 136.298 38.236 C 135.664 38.236 135.15 38.753 135.15 39.384 C 135.15 40.017 135.664 40.532 136.298 40.532"/>
  <path id="path34" style="fill: rgb(16, 15, 13); fill-opacity: 1; fill-rule: nonzero; stroke: none;" d="M 136.298 44.591 C 137.726 44.591 138.921 44.1 139.882 43.12 C 140.841 42.14 141.321 40.978 141.321 39.63 C 141.321 38.201 140.841 36.994 139.882 36.016 C 139.123 35.24 138.211 34.776 137.157 34.615 L 137.157 37.016 C 138.126 37.368 138.82 38.293 138.82 39.384 C 138.82 40.776 137.688 41.909 136.298 41.909 C 134.907 41.909 133.775 40.776 133.775 39.384 C 133.775 38.293 134.47 37.368 135.44 37.016 L 135.44 34.617 C 134.414 34.781 133.517 35.244 132.746 36.016 C 131.765 36.994 131.275 38.201 131.275 39.63 C 131.275 40.978 131.765 42.14 132.746 43.12 C 133.724 44.1 134.91 44.591 136.298 44.591"/>
</svg>