<?xml version="1.0" encoding="utf-8"?>
<svg viewBox="-244.429 149.952 448.299 203.235" xmlns="http://www.w3.org/2000/svg">
  <path d="M -244.429 158.876 L -243.255 318.988 L -238.131 318.956 L -238.131 282.295 L -236.272 282.295 L -236.272 318.771 L -182.738 307.291 L -182.738 179.731 L -236.272 168.249 L -236.272 195.461 L -238.131 195.461 L -238.131 165.046 L -244.429 158.876 Z M -190.138 237.011 C -188.267 237.011 -186.744 238.793 -186.744 240.994 C -186.744 243.192 -188.267 244.975 -190.138 244.975 C -192.011 244.975 -193.534 243.192 -193.534 240.994 C -193.534 238.793 -192.011 237.011 -190.138 237.011 Z M -236.272 199.887 L -236.272 278.051 L -238.131 278.051 L -238.131 199.887 L -236.272 199.887 Z" style="fill: rgb(144, 164, 203);"/>
  <path d="M -133.114 273.427 L -155.489 273.427 L -155.489 268.035 L -148.516 266.838 L -148.516 217.771 L -155.489 216.573 L -155.489 211.141 L -148.516 211.141 L -126.87 211.141 C -122.421 211.141 -118.628 211.919 -115.493 213.472 C -112.354 215.027 -109.959 217.201 -108.305 219.997 C -106.65 222.793 -105.824 226.058 -105.824 229.792 C -105.824 233.556 -106.65 236.835 -108.305 239.631 C -109.959 242.427 -112.354 244.595 -115.493 246.136 C -118.628 247.677 -122.421 248.447 -126.87 248.447 L -140.089 248.447 L -140.089 266.838 L -133.114 268.035 L -133.114 273.427 Z M -140.089 217.771 L -140.089 241.857 L -126.87 241.857 C -122.651 241.857 -119.492 240.724 -117.395 238.457 C -115.298 236.188 -114.25 233.327 -114.25 229.876 C -114.25 226.429 -115.298 223.548 -117.395 221.235 C -119.492 218.926 -122.651 217.771 -126.87 217.771 L -140.089 217.771 Z M -85.806 274.326 C -90.625 274.326 -94.29 273.149 -96.798 270.796 C -99.307 268.443 -100.563 265.128 -100.563 260.852 C -100.563 257.913 -99.757 255.352 -98.146 253.169 C -96.535 250.989 -94.204 249.294 -91.153 248.082 C -88.1 246.868 -84.449 246.26 -80.2 246.26 L -71.943 246.26 L -71.943 241.728 C -71.943 238.932 -72.792 236.766 -74.49 235.228 C -76.186 233.687 -78.574 232.917 -81.652 232.917 C -83.592 232.917 -85.277 233.151 -86.705 233.621 C -88.129 234.093 -89.426 234.742 -90.594 235.568 L -91.492 242.028 L -97.997 242.028 L -97.997 231.419 C -95.913 229.735 -93.489 228.459 -90.723 227.59 C -87.958 226.721 -84.892 226.288 -81.528 226.288 C -75.91 226.288 -71.504 227.626 -68.309 230.306 C -65.114 232.988 -63.517 236.824 -63.517 241.812 L -63.517 264.101 C -63.517 264.701 -63.51 265.285 -63.496 265.854 C -63.48 266.427 -63.443 266.997 -63.387 267.566 L -58.894 268.035 L -58.894 273.427 L -71.005 273.427 C -71.261 272.172 -71.46 271.046 -71.604 270.047 C -71.744 269.049 -71.843 268.051 -71.903 267.052 C -73.527 269.136 -75.559 270.868 -77.999 272.249 C -80.435 273.633 -83.037 274.326 -85.806 274.326 Z M -84.563 267.267 C -81.768 267.267 -79.215 266.596 -76.905 265.255 C -74.596 263.913 -72.942 262.303 -71.943 260.423 L -71.943 252.036 L -80.499 252.036 C -84.376 252.036 -87.286 252.964 -89.226 254.817 C -91.165 256.67 -92.136 258.739 -92.136 261.022 C -92.136 263.045 -91.508 264.593 -90.254 265.664 C -88.999 266.732 -87.102 267.267 -84.563 267.267 Z M -29.979 273.427 L -52.353 273.427 L -52.353 268.035 L -45.38 266.838 L -45.38 233.771 L -52.353 232.572 L -52.353 227.141 L -37.851 227.141 L -37.252 234.03 C -35.711 231.577 -33.779 229.673 -31.457 228.319 C -29.131 226.965 -26.484 226.288 -23.519 226.288 C -18.53 226.288 -14.667 227.749 -11.928 230.67 C -9.189 233.592 -7.819 238.105 -7.819 244.208 L -7.819 266.838 L -0.845 268.035 L -0.845 273.427 L -23.22 273.427 L -23.22 268.035 L -16.246 266.838 L -16.246 244.379 C -16.246 240.301 -17.053 237.408 -18.667 235.697 C -20.278 233.987 -22.737 233.131 -26.045 233.131 C -28.467 233.131 -30.613 233.716 -32.479 234.884 C -34.351 236.051 -35.842 237.649 -36.953 239.676 L -36.953 266.838 L -29.979 268.035 L -29.979 273.427 Z M 19.729 274.156 C 16.305 274.156 13.588 273.15 11.577 271.14 C 9.568 269.127 8.563 265.91 8.563 261.491 L 8.563 233.386 L 1.25 233.386 L 1.25 227.141 L 8.563 227.141 L 8.563 215.973 L 16.989 215.973 L 16.989 227.141 L 27.042 227.141 L 27.042 233.386 L 16.989 233.386 L 16.989 261.491 C 16.989 263.717 17.431 265.358 18.317 266.413 C 19.199 267.468 20.382 267.996 21.866 267.996 C 22.864 267.996 23.976 267.903 25.201 267.716 C 26.429 267.53 27.386 267.365 28.072 267.222 L 29.225 272.743 C 28 273.113 26.495 273.44 24.712 273.727 C 22.928 274.012 21.267 274.156 19.729 274.156 Z M 56.902 273.427 L 34.528 273.427 L 34.528 268.035 L 41.502 266.838 L 41.502 233.771 L 34.528 232.572 L 34.528 227.141 L 49.03 227.141 L 49.759 233.046 L 49.844 233.855 C 51.156 231.489 52.773 229.635 54.696 228.294 C 56.623 226.956 58.826 226.288 61.305 226.288 C 62.191 226.288 63.098 226.366 64.026 226.522 C 64.951 226.679 65.614 226.828 66.013 226.971 L 64.9 234.798 L 59.039 234.454 C 56.817 234.311 54.949 234.819 53.438 235.977 C 51.924 237.131 50.754 238.678 49.929 240.614 L 49.929 266.838 L 56.902 268.035 L 56.902 273.427 Z M 81.969 292.122 C 81.313 292.122 80.457 292.044 79.403 291.887 C 78.348 291.731 77.535 291.581 76.963 291.437 L 77.821 284.804 C 78.303 284.864 78.972 284.913 79.828 284.953 C 80.686 284.997 81.272 285.018 81.585 285.018 C 83.382 285.018 84.843 284.335 85.968 282.966 C 87.096 281.599 88.144 279.73 89.112 277.36 L 91.124 272.483 L 74.74 233.256 L 69.778 232.572 L 69.778 227.141 L 89.198 227.141 L 89.198 232.572 L 83.597 233.431 L 92.622 256.574 L 94.804 262.604 L 95.058 262.604 L 105.751 233.431 L 99.851 232.572 L 99.851 227.141 L 118.885 227.141 L 118.885 232.572 L 114.092 233.256 L 95.872 280.53 C 95.016 282.754 93.983 284.743 92.772 286.496 C 91.558 288.249 90.072 289.626 88.319 290.624 C 86.565 291.623 84.449 292.122 81.969 292.122 Z" style="fill: rgb(144, 164, 203); white-space: pre;"/>
  <path d="M 203.87 158.876 L 198.143 164.005 L 198.143 194.813 L 196.071 194.813 L 196.071 167.226 L 141.817 178.776 L 141.817 307.083 L 196.071 318.632 L 196.071 281.341 L 198.143 281.341 L 198.143 318.818 L 203.373 318.988 L 203.87 158.876 Z M 149.466 244.53 C 147.582 244.53 146.052 242.738 146.052 240.526 C 146.052 238.315 147.582 236.523 149.466 236.523 C 151.351 236.523 152.88 238.397 152.88 240.609 C 152.88 242.821 151.351 244.53 149.466 244.53 Z M 198.142 277.816 L 196.07 277.816 L 196.07 198.711 L 198.142 198.711 L 198.142 277.816 Z" style="fill: rgb(144, 164, 203);"/>
</svg>